HIERARCHY
ROOT root
{
	OFFSET 0.000000 0.000000 0.000000
	CHANNELS 6 Xposition Yposition Zposition Zrotation Yrotation Xrotation
	JOINT lhip
	{
		OFFSET 0.058581 -0.082280 -0.017664
		CHANNELS 3 Zrotation Yrotation Xrotation
		JOINT lknee
		{
			OFFSET 0.043451 -0.386469 0.008037
			CHANNELS 3 Zrotation Yrotation Xrotation
			JOINT lankle
			{
				OFFSET -0.014790 -0.426874 -0.037428
				CHANNELS 3 Zrotation Yrotation Xrotation
				JOINT ltoe
				{
					OFFSET 0.041054 -0.060286 0.122042
					CHANNELS 3 Zrotation Yrotation Xrotation
					End Site
					{
						OFFSET 0.000000 0.000000 0.000000
					}
				}
			}
		}
	}
	JOINT rhip
	{
		OFFSET -0.060310 -0.090513 -0.013543
		CHANNELS 3 Zrotation Yrotation Xrotation
		JOINT rknee
		{
			OFFSET -0.043257 -0.383688 -0.004843
			CHANNELS 3 Zrotation Yrotation Xrotation
			JOINT rankle
			{
				OFFSET 0.019056 -0.420046 -0.034562
				CHANNELS 3 Zrotation Yrotation Xrotation
				JOINT rtoe
				{
					OFFSET -0.034840 -0.062106 0.130323
					CHANNELS 3 Zrotation Yrotation Xrotation
					End Site
					{
						OFFSET 0.000000 0.000000 0.000000
					}
				}
			}
		}
	}
	JOINT lowerback
	{
		OFFSET 0.004439 0.124404 -0.038385
		CHANNELS 3 Zrotation Yrotation Xrotation
		JOINT upperback
		{
			OFFSET 0.004488 0.137956 0.026820
			CHANNELS 3 Zrotation Yrotation Xrotation
			JOINT chest
			{
				OFFSET -0.002265 0.056032 0.002855
				CHANNELS 3 Zrotation Yrotation Xrotation
				JOINT lowerneck
				{
					OFFSET -0.013390 0.211636 -0.033468
					CHANNELS 3 Zrotation Yrotation Xrotation
					JOINT upperneck
					{
						OFFSET 0.010113 0.088937 0.050410
						CHANNELS 3 Zrotation Yrotation Xrotation
						End Site
						{
							OFFSET 0.000000 0.000000 0.000000
						}
					}
				}
				JOINT lclavicle
				{
					OFFSET 0.071702 0.114000 -0.018898
					CHANNELS 3 Zrotation Yrotation Xrotation
					JOINT lshoulder
					{
						OFFSET 0.122921 0.045205 -0.019046
						CHANNELS 3 Zrotation Yrotation Xrotation
						JOINT lelbow
						{
							OFFSET 0.255332 -0.015649 -0.022946
							CHANNELS 3 Zrotation Yrotation Xrotation
							JOINT lwrist
							{
								OFFSET 0.265709 0.012698 -0.007375
								CHANNELS 3 Zrotation Yrotation Xrotation
								End Site
								{
									OFFSET 0.000000 0.000000 0.000000
								}
							}
						}
					}
				}
				JOINT rclavicle
				{
					OFFSET -0.082954 0.112472 -0.023707
					CHANNELS 3 Zrotation Yrotation Xrotation
					JOINT rshoulder
					{
						OFFSET -0.113228 0.046853 -0.008472
						CHANNELS 3 Zrotation Yrotation Xrotation
						JOINT relbow
						{
							OFFSET -0.260127 -0.014369 -0.031269
							CHANNELS 3 Zrotation Yrotation Xrotation
							JOINT rwrist
							{
								OFFSET -0.269108 0.006794 -0.006027
								CHANNELS 3 Zrotation Yrotation Xrotation
								End Site
								{
									OFFSET 0.000000 0.000000 0.000000
								}
							}
						}
					}
				}
			}
		}
	}
}
MOTION
Frames: 8
Frame Time: 0.033333
0.364413 0.719861 0.830141 41.770547 -0.829480 79.908785 13.578148 4.083854 -62.368814 -1.091180 14.926896 93.661932 -1.141676 7.717186 -21.100966 0.000000 -0.000000 0.000000 7.311894 5.531331 -37.934862 -6.902981 -6.623423 76.030708 -4.567363 -15.903630 -30.285250 0.000000 -0.000000 0.000000 -3.808649 1.001255 74.693451 -0.142507 -11.270683 -0.894536 4.023622 -3.504121 6.225551 -17.959218 7.378799 7.436486 9.805044 16.585838 -20.272202 8.261867 -29.238434 -16.126439 -8.206521 -21.921379 -10.057312 83.668419 -71.818430 -94.560143 33.242062 8.488851 -25.846308 -4.872397 20.288723 -10.540720 59.276993 -3.260966 18.847568 -168.046166 63.172652 -142.305041 -19.639667 11.588147 -1.045892 
0.380006 0.708886 0.824949 41.127408 -0.827688 79.175735 13.042518 4.959579 -62.607117 -0.482355 14.918646 81.341896 -0.643778 9.149591 -20.612735 0.000000 -0.000000 0.000000 7.558780 5.492336 -36.209411 -6.688068 -6.196729 77.536745 -4.175878 -16.507679 -32.203889 0.000000 -0.000000 0.000000 -3.182716 1.145041 75.361832 -0.188270 -11.940624 -0.631381 3.550146 -3.749114 5.119093 -17.001304 7.962742 8.180883 9.111768 16.531690 -20.294872 7.687769 -30.156951 -16.354598 -7.070423 -20.928965 -10.687949 78.093200 -71.668911 -89.734684 32.122105 8.842718 -27.167318 -4.823300 22.002120 -10.756301 59.449208 -2.089630 18.789511 -166.835250 63.058983 -141.686700 -18.182243 11.510110 -0.289938 
0.393735 0.698192 0.823485 40.743810 -0.866188 79.243244 11.849079 5.441997 -60.571537 -2.424514 14.346339 65.651067 0.006821 10.346609 -19.723170 0.000000 -0.000000 0.000000 7.923407 6.170420 -34.942646 -5.330359 -5.591117 77.951759 -3.950799 -19.210968 -33.366280 0.000000 -0.000000 0.000000 -4.480757 1.394933 74.396248 -0.415960 -11.484927 0.187066 4.010556 -3.907030 4.736146 -17.086911 8.216978 7.352540 9.555718 17.198663 -18.958745 7.114245 -31.233858 -16.491787 -6.370255 -19.122930 -11.321745 74.307044 -71.778826 -86.728815 31.366843 8.979428 -27.729485 -4.725779 23.870183 -10.649683 59.315794 -1.174703 18.857951 -165.752613 63.347081 -141.658191 -17.215903 11.670144 0.495658 
0.411847 0.683639 0.824759 41.267083 -0.655763 78.983973 10.092504 5.224950 -56.936190 -3.304657 13.080942 50.213502 -0.072571 9.698772 -19.322915 0.000000 -0.000000 0.000000 8.514795 5.604080 -32.582132 -6.824910 -5.170908 78.079326 -3.207032 -18.470626 -35.061334 0.000000 -0.000000 0.000000 -3.742417 0.062071 73.088926 -1.134342 -12.217896 0.881154 3.233753 -3.985513 4.268882 -15.771185 8.856801 7.469220 9.130223 16.763972 -18.164434 4.602241 -31.577706 -16.370579 -5.640264 -20.222298 -9.688260 67.805785 -71.186930 -81.535359 30.674214 7.391448 -26.460834 -3.175897 23.817236 -10.625096 59.534057 -0.948693 20.661568 -164.964852 64.710540 -141.484070 -16.921131 11.881806 0.567260 
0.430310 0.669896 0.828400 41.265057 -0.752240 79.071199 8.823449 4.918680 -52.233426 -4.160078 12.139189 35.662888 -0.331886 10.375302 -18.403535 0.000000 -0.000000 0.000000 8.760585 5.925109 -30.202596 -6.919809 -4.616234 77.539536 -2.494127 -19.284711 -36.210517 0.000000 -0.000000 0.000000 -3.908182 -0.473923 71.227055 -1.607602 -12.278822 1.883151 2.832458 -4.225846 3.777688 -15.230229 9.185326 7.141527 8.841552 16.536863 -17.163858 2.339139 -31.817363 -15.751996 -6.018278 -20.346058 -8.508298 65.430011 -71.465596 -79.184183 30.191323 6.389208 -25.817627 -1.641741 23.903222 -10.162469 59.356155 -1.619010 21.649204 -165.850037 65.725552 -142.893933 -16.761995 12.335781 1.023228 
0.450541 0.655194 0.834048 41.217870 -0.969277 79.375154 7.980801 4.083180 -47.668642 -4.321392 11.562223 24.611321 -0.650702 11.254040 -17.246243 0.000000 -0.000000 0.000000 8.793881 6.177408 -27.632849 -6.843238 -4.024934 76.492396 -1.738016 -20.051389 -37.151112 0.000000 -0.000000 0.000000 -4.247921 -0.815892 68.749135 -1.958391 -12.196548 2.916611 2.511168 -4.453515 3.451750 -14.873856 9.432583 6.818609 8.657970 16.391229 -15.667763 -0.311607 -31.701530 -14.713138 -7.183874 -20.922423 -6.932147 64.041500 -71.970212 -77.553544 30.059717 5.495464 -24.973332 0.486288 23.450743 -9.195001 58.445989 -2.586862 22.596898 -167.242358 66.943937 -144.926300 -16.983526 12.917949 1.345681 
0.472338 0.639840 0.841488 41.137163 -1.205330 79.981358 7.374431 2.809221 -43.930352 -4.098215 10.098721 17.876742 -0.581420 12.316202 -15.618819 0.000000 -0.000000 0.000000 8.683718 6.286758 -25.020462 -6.436326 -3.314018 74.913160 -1.040132 -20.846611 -37.845905 0.000000 -0.000000 0.000000 -4.755623 -0.939986 65.740610 -2.076803 -11.967204 3.805114 2.327157 -4.721277 3.375350 -14.536268 9.694792 6.465001 8.420104 16.514184 -13.478738 -3.285188 -31.259173 -13.242591 -9.055422 -21.754964 -5.238465 63.307645 -72.720139 -76.153374 30.224001 4.816903 -24.096911 3.014266 22.511591 -7.895310 56.889486 -3.626038 23.311019 -168.991051 68.604207 -147.364193 -17.441786 13.729617 1.859001 
0.495814 0.624199 0.850815 41.025283 -1.308918 81.080459 6.921924 1.427978 -41.155050 -3.789702 7.996831 14.457151 -0.316431 12.908620 -13.287228 0.000000 -0.000000 0.000000 8.395674 6.387230 -22.608193 -5.907752 -2.674719 72.788465 -0.302210 -21.180441 -38.239576 0.000000 -0.000000 0.000000 -5.128918 -0.928902 62.333147 -1.926460 -11.628766 4.448534 2.067591 -4.885618 3.466210 -13.544386 10.317119 6.067480 7.974648 16.356082 -10.952423 -6.542767 -30.532835 -11.235191 -11.563900 -23.141044 -3.235449 63.511275 -73.387119 -75.136249 30.562027 4.029524 -23.024816 6.185742 20.663253 -6.521068 54.742408 -4.956559 23.847588 -171.130350 70.536368 -150.043003 -17.603537 14.743253 2.473946 
